<svg id="Layer_1" data-name="Layer 1" xmlns="http://www.w3.org/2000/svg" viewBox="0 0 841.89 841.89"><title>logo-julo-01</title><g style="opacity:0.2"><g style="isolation:isolate"><polygon points="301.71 347.39 243.84 315.91 498.98 280.04 556.87 311.53 301.71 347.39" style="fill:#695be8"/><polygon points="226.68 765.48 168.81 734 170.07 59.69 227.95 91.18 226.68 765.48" style="fill:#4536d6"/><polygon points="227.95 91.18 170.07 59.69 499.48 13.39 557.36 44.87 227.95 91.18" style="fill:#695be8"/><polygon points="557.36 44.87 557.23 118.08 302.07 153.95 301.71 347.39 556.87 311.53 556.72 386.17 301.58 422.04 300.96 755.05 226.68 765.48 227.95 91.18 557.36 44.87" style="fill:#543aed"/></g></g><g style="isolation:isolate"><polygon points="359.59 378.87 301.7 347.39 556.84 311.53 614.73 343.01 359.59 378.87" style="fill:#7e6fd8"/><polygon points="284.56 796.97 226.67 765.48 227.94 91.18 285.82 122.66 284.56 796.97" style="fill:#6657c1"/><polygon points="285.82 122.66 227.94 91.18 557.35 44.87 615.23 76.36 285.82 122.66" style="fill:#7e6fd8"/><polygon points="615.23 76.36 615.09 149.57 359.95 185.43 359.59 378.87 614.73 343.01 614.58 417.65 359.45 453.52 358.82 786.53 284.56 796.97 285.82 122.66 615.23 76.36" style="fill:#785fdc"/></g><g style="opacity:0.2"><g style="isolation:isolate"><polygon points="417.44 410.41 359.57 378.93 614.7 343.06 672.59 374.55 417.44 410.41" style="fill:#695be8"/><polygon points="342.41 828.5 284.53 797.02 285.79 122.71 343.68 154.19 342.41 828.5" style="fill:#4536d6"/><polygon points="343.68 154.19 285.79 122.71 615.21 76.41 673.08 107.89 343.68 154.19" style="fill:#695be8"/><polygon points="673.08 107.89 672.95 181.1 417.8 216.97 417.44 410.41 672.59 374.55 672.44 449.19 417.31 485.05 416.68 818.07 342.41 828.5 343.68 154.19 673.08 107.89" style="fill:#543aed"/></g></g></svg>